<svg width="13" height="12" viewBox="0 0 13 12" fill="none" xmlns="http://www.w3.org/2000/svg">
<path d="M11.5967 9.99105C11.4683 9.99097 11.3451 9.93991 11.2543 9.84909C11.1635 9.75827 11.1124 9.63511 11.1123 9.50668L11.1118 2.45189L1.88644 11.6772C1.79555 11.7681 1.67227 11.8192 1.54373 11.8192C1.41519 11.8192 1.29191 11.7681 1.20101 11.6772C1.11012 11.5863 1.05906 11.463 1.05906 11.3345C1.05906 11.2059 1.11012 11.0827 1.20101 10.9918L10.4263 1.76646L3.37154 1.76589C3.24604 1.76146 3.12715 1.70848 3.03993 1.61813C2.95271 1.52778 2.90397 1.4071 2.90397 1.28151C2.90397 1.15593 2.95271 1.03525 3.03993 0.944899C3.12715 0.854546 3.24604 0.801575 3.37154 0.797145L11.5967 0.797145C11.7251 0.797224 11.8483 0.848282 11.9391 0.939102C12.0299 1.02992 12.081 1.15308 12.0811 1.28152L12.0811 9.50668C12.081 9.63511 12.0299 9.75827 11.9391 9.84909C11.8483 9.93991 11.7251 9.99097 11.5967 9.99105Z" fill="#F5FAFA" stroke="#F5FAFA" stroke-width="0.21663"/>
</svg>
