<svg width="243" height="175" viewBox="0 0 243 175" fill="none" xmlns="http://www.w3.org/2000/svg">
<path d="M137.946 140.267C173.928 139.955 203 110.69 203 74.6347C203 38.3857 173.614 9 137.365 9C105.646 9 79.1822 31.5001 73.0633 61.4105C66.7235 57.6354 59.3156 55.4671 51.4012 55.4671C27.9837 55.4671 9 74.4507 9 97.8683C9 121.286 27.9837 140.269 51.4012 140.269C51.5951 140.269 51.7887 140.268 51.982 140.266V140.269H137.946V140.267Z" fill="#F5F9F9" stroke="#B3E6FF" stroke-width="17.4252"/>
<path d="M195.437 165.999C216.766 165.813 234 148.424 234 127C234 105.461 216.581 88 195.093 88C176.29 88 160.603 101.37 156.976 119.142C153.218 116.899 148.826 115.611 144.135 115.611C130.253 115.611 119 126.891 119 140.805C119 154.72 130.253 166 144.135 166C144.25 166 144.364 165.999 144.479 165.998V166H195.437V165.999Z" fill="#F5F9F9" stroke="#B3E6FF" stroke-width="17.43"/>
</svg>
