<svg width="215" height="140" viewBox="0 0 215 140" fill="none" xmlns="http://www.w3.org/2000/svg">
<circle cx="9.25415" cy="29.0389" r="9.25415" fill="#5BCAFF"/>
<circle cx="47.5474" cy="29.0389" r="9.25415" fill="#5BCAFF"/>
<circle cx="28.401" cy="9.25415" r="9.25415" fill="#5BCAFF"/>
<circle cx="28.4011" cy="48.8236" r="9.25415" fill="#5BCAFF"/>
<circle cx="9.25415" cy="9.25415" r="9.25415" transform="matrix(1 0 0 -1 78.7888 119.274)" fill="#5BCAFF"/>
<circle cx="9.25415" cy="9.25415" r="9.25415" transform="matrix(1 0 0 -1 117.082 119.275)" fill="#5BCAFF"/>
<circle cx="9.25415" cy="9.25415" r="9.25415" transform="matrix(1 0 0 -1 97.9355 139.059)" fill="#5BCAFF"/>
<circle cx="9.25415" cy="9.25415" r="9.25415" transform="matrix(1 0 0 -1 97.9355 99.4897)" fill="#5BCAFF"/>
<circle cx="9.25415" cy="9.25415" r="9.25415" transform="matrix(-1 0 0 1 214.379 19.7847)" fill="#5BCAFF"/>
<circle cx="9.25415" cy="9.25415" r="9.25415" transform="matrix(-1 0 0 1 176.086 19.7847)" fill="#5BCAFF"/>
<circle cx="9.25415" cy="9.25415" r="9.25415" transform="matrix(-1 0 0 1 195.233 -1.52588e-05)" fill="#5BCAFF"/>
<circle cx="9.25415" cy="9.25415" r="9.25415" transform="matrix(-1 0 0 1 195.232 39.5695)" fill="#5BCAFF"/>
<circle cx="9.25415" cy="110.02" r="9.25415" fill="#B3E6FF"/>
<circle cx="47.5474" cy="110.02" r="9.25415" fill="#B3E6FF"/>
<circle cx="28.401" cy="90.2357" r="9.25415" fill="#B3E6FF"/>
<circle cx="28.4011" cy="129.805" r="9.25415" fill="#B3E6FF"/>
<circle cx="9.25415" cy="9.25415" r="9.25415" transform="matrix(1 0 0 -1 78.7888 38.293)" fill="#B3E6FF"/>
<circle cx="9.25415" cy="9.25415" r="9.25415" transform="matrix(1 0 0 -1 117.082 38.293)" fill="#B3E6FF"/>
<circle cx="9.25415" cy="9.25415" r="9.25415" transform="matrix(1 0 0 -1 97.9355 58.0778)" fill="#B3E6FF"/>
<circle cx="9.25415" cy="9.25415" r="9.25415" transform="matrix(1 0 0 -1 97.9355 18.5083)" fill="#B3E6FF"/>
<circle cx="9.25415" cy="9.25415" r="9.25415" transform="matrix(-1 0 0 1 214.379 100.766)" fill="#B3E6FF"/>
<circle cx="9.25415" cy="9.25415" r="9.25415" transform="matrix(-1 0 0 1 176.086 100.766)" fill="#B3E6FF"/>
<circle cx="9.25415" cy="9.25415" r="9.25415" transform="matrix(-1 0 0 1 195.233 80.9815)" fill="#B3E6FF"/>
<circle cx="9.25415" cy="9.25415" r="9.25415" transform="matrix(-1 0 0 1 195.232 120.551)" fill="#B3E6FF"/>
</svg>
