<svg width="248" height="271" viewBox="0 0 248 271" fill="none" xmlns="http://www.w3.org/2000/svg">
<g filter="url(#filter0_d_32_1716)">
<path d="M129.604 121.709L48.5693 202.744" stroke="#C74343" stroke-width="7" stroke-linecap="round"/>
<path d="M192.201 57.5735L178.525 71.2497" stroke="#C74343" stroke-width="7" stroke-linecap="round"/>
<path d="M187.787 187.787C203.728 171.847 212.289 149.833 211.588 126.588C210.888 103.344 200.982 80.7734 184.05 63.8416C167.118 46.9097 144.547 37.0038 121.303 36.3028C98.0585 35.6019 76.0447 44.1635 60.1041 60.1041L123.946 123.946L187.787 187.787Z" fill="#FFBA37"/>
<path fill-rule="evenodd" clip-rule="evenodd" d="M204.506 129.45C204.506 147.104 197.493 164.034 185.01 176.518L161.785 153.293C180.349 133.669 189.747 108.881 189 86.744C198.977 98.6714 204.506 113.776 204.506 129.45Z" fill="#FFAB07"/>
</g>
<defs>
<filter id="filter0_d_32_1716" x="45.0693" y="36.263" width="196.559" height="233.981" filterUnits="userSpaceOnUse" color-interpolation-filters="sRGB">
<feFlood flood-opacity="0" result="BackgroundImageFix"/>
<feColorMatrix in="SourceAlpha" type="matrix" values="0 0 0 0 0 0 0 0 0 0 0 0 0 0 0 0 0 0 127 0" result="hardAlpha"/>
<feOffset dx="20" dy="54"/>
<feGaussianBlur stdDeviation="5"/>
<feComposite in2="hardAlpha" operator="out"/>
<feColorMatrix type="matrix" values="0 0 0 0 0.177302 0 0 0 0 0.551101 0 0 0 0 0.633154 0 0 0 0.11 0"/>
<feBlend mode="normal" in2="BackgroundImageFix" result="effect1_dropShadow_32_1716"/>
<feBlend mode="normal" in="SourceGraphic" in2="effect1_dropShadow_32_1716" result="shape"/>
</filter>
</defs>
</svg>
