<svg width="45" height="38" viewBox="0 0 45 38" fill="none" xmlns="http://www.w3.org/2000/svg">
<path fill-rule="evenodd" clip-rule="evenodd" d="M27.9466 6.72576C28.1554 5.67142 28.5704 4.66309 29.1733 3.76076C30.075 2.41125 31.3567 1.35943 32.8562 0.738316C34.3557 0.117203 36.0057 -0.0453083 37.5975 0.271333C39.1894 0.587973 40.6516 1.36954 41.7993 2.51721C42.9469 3.66488 43.7285 5.1271 44.0452 6.71896C44.3618 8.31082 44.1993 9.96082 43.5782 11.4603C42.9571 12.9598 41.9052 14.2415 40.5557 15.1432C39.2081 16.0436 37.6241 16.5248 36.0035 16.5262C35.9997 16.5262 35.9966 16.5231 35.9966 16.5192C35.9966 16.5154 35.9935 16.5123 35.9896 16.5123L8.19015 16.5123C7.30916 16.5123 6.59497 15.7981 6.59497 14.9171C6.59497 14.0361 7.30916 13.3219 8.19015 13.3219L35.9944 13.3219C35.9953 13.3219 35.9962 13.3213 35.9965 13.3204C35.9965 13.3202 35.9966 13.32 35.9966 13.3197C35.9966 13.3189 35.997 13.3182 35.9977 13.3178C35.998 13.3176 35.9984 13.3175 35.9988 13.3175C36.9864 13.3171 37.9519 13.024 38.7731 12.4753C39.595 11.9261 40.2355 11.1456 40.6138 10.2324C40.992 9.31923 41.091 8.31437 40.8982 7.34493C40.7053 6.37549 40.2293 5.485 39.5304 4.78607C38.8315 4.08714 37.941 3.61117 36.9716 3.41833C36.0021 3.2255 34.9973 3.32447 34.0841 3.70273C33.1709 4.08098 32.3904 4.72154 31.8412 5.54339C31.5914 5.91722 31.3946 6.32091 31.2543 6.74298C30.9747 7.58376 30.2807 8.31992 29.3946 8.31992C28.5086 8.31992 27.7745 7.59492 27.9466 6.72576ZM1.59518 6.70878L18.5 6.70877C19.381 6.70876 20.0951 5.99458 20.0951 5.11358C20.0951 4.23259 19.381 3.5184 18.5 3.5184L1.59518 3.51841C0.714186 3.51841 0 4.2326 0 5.1136C0 5.99459 0.714188 6.70878 1.59518 6.70878ZM18.5 27.7088L1.59518 27.7088C0.714188 27.7088 0 26.9947 0 26.1137C0 25.2327 0.714186 24.5185 1.59518 24.5185L18.5 24.5185C19.381 24.5185 20.0951 25.2326 20.0951 26.1136C20.0951 26.9946 19.381 27.7088 18.5 27.7088ZM35.9988 34.3175C35.9976 34.3175 35.9966 34.3185 35.9966 34.3197C35.9966 34.3209 35.9956 34.3219 35.9944 34.3219L8.19024 34.3219C7.30924 34.3219 6.59506 35.0361 6.59506 35.9171C6.59506 36.7981 7.30924 37.5123 8.19024 37.5123H35.9897C35.9935 37.5123 35.9966 37.5154 35.9966 37.5192C35.9966 37.5231 35.9997 37.5262 36.0036 37.5262C37.6242 37.5248 39.2082 37.0436 40.5558 36.1432C41.9053 35.2415 42.9571 33.9598 43.5782 32.4603C44.1993 30.9608 44.3618 29.3108 44.0452 27.719C43.7286 26.1271 42.947 24.6649 41.7993 23.5172C40.6517 22.3695 39.1894 21.588 37.5976 21.2713C36.0057 20.9547 34.3557 21.1172 32.8562 21.7383C31.3567 22.3594 30.0751 23.4112 29.1734 24.7608C28.5704 25.6631 28.1555 26.6714 27.9467 27.7258C27.7745 28.5949 28.5086 29.3199 29.3947 29.3199C30.2807 29.3199 30.9747 28.5838 31.2543 27.743C31.3947 27.3209 31.5915 26.9172 31.8413 26.5434C32.3904 25.7215 33.1709 25.081 34.0841 24.7027C34.9973 24.3245 36.0022 24.2255 36.9716 24.4183C37.941 24.6112 38.8315 25.0871 39.5305 25.7861C40.2294 26.485 40.7054 27.3755 40.8982 28.3449C41.091 29.3144 40.9921 30.3192 40.6138 31.2324C40.2355 32.1456 39.595 32.9261 38.7731 33.4753C37.9519 34.024 36.9865 34.3171 35.9988 34.3175Z" fill="#464461"/>
</svg>
